<svg data-name="Layer 1" xmlns="http://www.w3.org/2000/svg" xmlns:xlink="http://www.w3.org/1999/xlink" width="666.24" height="728.82" viewBox="0 0 666.24 728.82"><defs><linearGradient id="a" x1="600" y1="814.41" x2="600" y2="85.59" gradientTransform="translate(-266.87 -85.6)" gradientUnits="userSpaceOnUse"><stop offset="0" stop-color="gray" stop-opacity=".25"/><stop offset=".54" stop-color="gray" stop-opacity=".12"/><stop offset="1" stop-color="gray" stop-opacity=".1"/></linearGradient><linearGradient id="b" x1="333.12" y1="540.89" x2="333.12" y2="294.6" xlink:href="#a"/><linearGradient id="c" x1="176.82" y1="463.53" x2="176.82" y2="349.86" xlink:href="#a"/></defs><rect x="131.23" width="403.77" height="728.81" rx="15.34" ry="15.34" fill="url(#a)"/><rect x="136.69" y="9.85" width="392.86" height="709.12" rx="13.64" ry="13.64" fill="#fff"/><path d="M431.82 27.63a31.85 31.85 0 01-31.39 27.09h-135.7a31.85 31.85 0 01-31.39-27.09h-71.87a14.92 14.92 0 00-14.92 14.92v643.72a14.92 14.92 0 0014.92 14.92h343.3a14.92 14.92 0 0014.92-14.92V42.55a14.92 14.92 0 00-14.92-14.92z" fill="#6c63ff" opacity=".2"/><rect x="289.9" y="36.12" width="87.55" height="5.47" rx="2" ry="2" fill="#dbdbdb"/><circle cx="396.05" cy="38.31" r="3.28" fill="#dbdbdb"/><circle cx="203.47" cy="164.78" r="40.07" fill="#fff"/><path fill="#fff" d="M282.37 134.72h71.38v12.52h-71.38zm0 23.79h196.62v12.52H282.37zm0 23.8h196.62v12.52H282.37z"/><circle cx="203.47" cy="283.75" r="40.07" fill="#fff"/><path fill="#fff" d="M282.37 253.69h71.38v12.52h-71.38zm0 23.8h196.62v12.52H282.37zm0 23.79h196.62v12.52H282.37z"/><circle cx="203.47" cy="402.72" r="40.07" fill="#fff"/><path fill="#fff" d="M282.37 372.66h71.38v12.52h-71.38zm0 23.8h196.62v12.52H282.37zm0 23.79h196.62v12.52H282.37z"/><circle cx="203.47" cy="521.69" r="40.07" fill="#fff"/><path fill="#fff" d="M282.37 491.63h71.38v12.52h-71.38zm0 23.8h196.62v12.52H282.37zm0 23.79h196.62v12.52H282.37z"/><circle cx="203.47" cy="640.66" r="40.07" fill="#fff"/><path fill="#fff" d="M282.37 610.61h71.38v12.52h-71.38zm0 23.79h196.62v12.52H282.37zm0 23.79h196.62v12.52H282.37z"/><path fill="url(#b)" d="M0 294.6h666.24v246.29H0z"/><path fill="#fff" d="M4.74 299.34h656.77v227.34H4.74z"/><circle cx="176.82" cy="406.7" r="56.84" fill="url(#c)"/><circle cx="176.82" cy="406.7" r="50.52" fill="#6c63ff"/><path d="M276.28 368.8h89.99v15.79h-89.99zm0 30h247.87v15.79H276.28zm0 30h247.87v15.79H276.28z" opacity=".2" fill="#6c63ff"/><path fill="#fff" d="M209.98 386.44l-11.1-8.47-29.24 38.32-16.32-12.46-8.47 11.1 21.88 16.7.06-.08 5.53 4.22 37.66-49.33z"/></svg>